# xmcd
#
# Track frame offsets:
#	150
#	11488
#	20350
#	31525
#	44637
#	55890
#	66704
#	78342
#	88777
#	99182
#	111012
#	122550
#
# Disc length: 1777 seconds
#
# Revision: 0
# Processed by: cddbd v1.5.2PL0 Copyright (c) Steve Scherf et al.
# Submitted via: EasyCDDAExtractor 16.0.1.1
#
DISCID=9006ef0c
DTITLE=Patsy Cline - Patsy Cline's Golden Hits
DYEAR=1962
DGENRE=Country
TTITLE0=Just Out of Reach (Of My Two Open Arms)
TTITLE1=Ain't No Wheels on This Ship
TTITLE2=Stop the World (And Let Me Off)
TTITLE3=If I Could See the World (Through the Eyes of a Child)
TTITLE4=I Can't Forget You
TTITLE5=I Can See an Angel
TTITLE6=Walking After Midnight
TTITLE7=Too Many Secrets
TTITLE8=Three Cigarettes (In an Ashtray)
TTITLE9=In Care Of he Blues
TTITLE10=Hungry For Love
TTITLE11=I Don't Wanta
EXTD=
EXTT0=
EXTT1=
EXTT2=
EXTT3=
EXTT4=
EXTT5=
EXTT6=
EXTT7=
EXTT8=
EXTT9=
EXTT10=
EXTT11=
PLAYORDER=
